# xmcd CD database file
#
# Track frame offsets:
#	150
#	17865
#	37217
#	54902
#
# Disc length: 988 seconds
#
# Revision: 2
# Processed by: cddbd v1.5.2PL0 Copyright (c) Steve Scherf et al.
# Submitted via: CDex 1.70beta3
#
DISCID=2e03da04
DTITLE=生稲晃子／富沢美智恵 - LUNA Great
DYEAR=1991
DGENRE=Anime
TTITLE0=生稲晃子/LUNA Great
TTITLE1=富沢美智恵/ルナ・ヴァルガー走る！
TTITLE2=LUNA Great（オリジナル・カラオケ）
TTITLE3=ルナ・ヴァルガー走る！（オリジナル・カラオケ）
EXTD=YEAR: 1991
EXTT0=
EXTT1=
EXTT2=
EXTT3=
PLAYORDER=
